<?xml version="1.0" encoding="UTF-8" standalone="no"?>
<!-- Created with Inkscape (http://www.inkscape.org/) -->

<svg
   xmlns:svg="http://www.w3.org/2000/svg"
   xmlns="http://www.w3.org/2000/svg"
   version="1.0"
   width="100"
   height="100"
   id="svg2385">
  <defs
     id="defs2387" />
  <g
     transform="matrix(1.3155488,0,0,1.3155488,-6.2098131,12.925444)"
     id="g2399"
     style="fill:#ff0000">
    <path
       d="M 59.493494,34.001404 C 59.498075,47.887981 47.660748,59.147586 33.057082,59.147586 18.453415,59.147586 6.6160885,47.887981 6.6206695,34.001404 6.6160885,20.114826 18.453415,8.8552203 33.057082,8.8552203 c 14.603666,0 26.440993,11.2596057 26.436412,25.1461837 l 0,0 z"
       id="path2460"
       style="fill:#ff0000" />
    <path
       d="m 78.833878,5.9813993 c 0.0015,4.8405237 -3.922081,8.7653487 -8.76261,8.7653487 -4.840529,0 -8.764128,-3.924825 -8.76261,-8.7653487 -0.0015,-4.840524 3.922081,-8.76535 8.76261,-8.76535 4.840529,0 8.764128,3.924826 8.76261,8.76535 l 0,0 z"
       id="path2462"
       style="fill:#ff0000" />
  </g>
</svg>
