<?xml version="1.0" encoding="UTF-8" standalone="no"?>
<!-- Created with Inkscape (http://www.inkscape.org/) -->

<svg
   xmlns:dc="http://purl.org/dc/elements/1.1/"
   xmlns:cc="http://creativecommons.org/ns#"
   xmlns:rdf="http://www.w3.org/1999/02/22-rdf-syntax-ns#"
   xmlns:svg="http://www.w3.org/2000/svg"
   xmlns="http://www.w3.org/2000/svg"
   xmlns:sodipodi="http://sodipodi.sourceforge.net/DTD/sodipodi-0.dtd"
   xmlns:inkscape="http://www.inkscape.org/namespaces/inkscape"
   width="200"
   height="212.11"
   id="svg2"
   version="1.1"
   inkscape:version="0.47 r22583"
   sodipodi:docname="New document 1">
  <defs
     id="defs4">
    <inkscape:perspective
       sodipodi:type="inkscape:persp3d"
       inkscape:vp_x="0 : 526.18109 : 1"
       inkscape:vp_y="0 : 1000 : 0"
       inkscape:vp_z="744.09448 : 526.18109 : 1"
       inkscape:persp3d-origin="372.04724 : 350.78739 : 1"
       id="perspective10" />
    <inkscape:perspective
       id="perspective2824"
       inkscape:persp3d-origin="0.5 : 0.33333333 : 1"
       inkscape:vp_z="1 : 0.5 : 1"
       inkscape:vp_y="0 : 1000 : 0"
       inkscape:vp_x="0 : 0.5 : 1"
       sodipodi:type="inkscape:persp3d" />
    <inkscape:perspective
       id="perspective2866"
       inkscape:persp3d-origin="0.5 : 0.33333333 : 1"
       inkscape:vp_z="1 : 0.5 : 1"
       inkscape:vp_y="0 : 1000 : 0"
       inkscape:vp_x="0 : 0.5 : 1"
       sodipodi:type="inkscape:persp3d" />
    <inkscape:perspective
       id="perspective2880"
       inkscape:persp3d-origin="0.5 : 0.33333333 : 1"
       inkscape:vp_z="1 : 0.5 : 1"
       inkscape:vp_y="0 : 1000 : 0"
       inkscape:vp_x="0 : 0.5 : 1"
       sodipodi:type="inkscape:persp3d" />
    <inkscape:perspective
       id="perspective2900"
       inkscape:persp3d-origin="0.5 : 0.33333333 : 1"
       inkscape:vp_z="1 : 0.5 : 1"
       inkscape:vp_y="0 : 1000 : 0"
       inkscape:vp_x="0 : 0.5 : 1"
       sodipodi:type="inkscape:persp3d" />
    <inkscape:perspective
       id="perspective2928"
       inkscape:persp3d-origin="0.5 : 0.33333333 : 1"
       inkscape:vp_z="1 : 0.5 : 1"
       inkscape:vp_y="0 : 1000 : 0"
       inkscape:vp_x="0 : 0.5 : 1"
       sodipodi:type="inkscape:persp3d" />
    <inkscape:perspective
       id="perspective2971"
       inkscape:persp3d-origin="0.5 : 0.33333333 : 1"
       inkscape:vp_z="1 : 0.5 : 1"
       inkscape:vp_y="0 : 1000 : 0"
       inkscape:vp_x="0 : 0.5 : 1"
       sodipodi:type="inkscape:persp3d" />
    <inkscape:perspective
       id="perspective3001"
       inkscape:persp3d-origin="0.5 : 0.33333333 : 1"
       inkscape:vp_z="1 : 0.5 : 1"
       inkscape:vp_y="0 : 1000 : 0"
       inkscape:vp_x="0 : 0.5 : 1"
       sodipodi:type="inkscape:persp3d" />
  </defs>
  <sodipodi:namedview
     id="base"
     pagecolor="#ffffff"
     bordercolor="#666666"
     borderopacity="1.0"
     inkscape:pageopacity="0.0"
     inkscape:pageshadow="2"
     inkscape:zoom="1.4"
     inkscape:cx="84.685254"
     inkscape:cy="57.585011"
     inkscape:document-units="px"
     inkscape:current-layer="g3007"
     showgrid="false"
     inkscape:window-width="1280"
     inkscape:window-height="944"
     inkscape:window-x="-8"
     inkscape:window-y="-8"
     inkscape:window-maximized="1">
    <inkscape:grid
       type="xygrid"
       id="grid2934"
       empspacing="5"
       visible="true"
       enabled="true"
       snapvisiblegridlinesonly="true" />
  </sodipodi:namedview>
  <metadata
     id="metadata7">
    <rdf:RDF>
      <cc:Work
         rdf:about="">
        <dc:format>image/svg+xml</dc:format>
        <dc:type
           rdf:resource="http://purl.org/dc/dcmitype/StillImage" />
        <dc:title></dc:title>
      </cc:Work>
    </rdf:RDF>
  </metadata>
  <g
     inkscape:label="Layer 1"
     inkscape:groupmode="layer"
     id="layer1"
     transform="translate(-215.54179,-825.50551)">
    <g
       id="g2832"
       transform="translate(362.85715,231.42857)">
      <g
         id="g3007">
        <g
           id="g3014"
           transform="matrix(0.19122049,0,0,0.19122049,-29.079725,557.88617)">
          <path
             id="rect2990"
             d="m -478.03572,191.93361 764.35714,0 c 8.21108,0 14.82143,6.61036 14.82143,14.82143 l 0,764.35714 c 0,8.21107 -6.61035,14.82143 -14.82143,14.82143 l -764.35714,0 c -8.21107,0 -14.82143,-6.61036 -14.82143,-14.82143 l 0,-764.35714 c 0,-8.21107 6.61036,-14.82143 14.82143,-14.82143 z"
             style="fill:#44b348;fill-opacity:1;fill-rule:nonzero;stroke:none" />
          <path
             style="fill:#fefefe;fill-opacity:1;fill-rule:nonzero;stroke:none"
             d="m -7.32584,270.65231 c -1.3605,0.3652 -4.1446,4.1724 -7.9063,10.75 -3.1994,5.5944 -8.1587,14.2063 -11.0312,19.1563 -2.8726,4.95 -7.7984,13.5 -10.9375,19 -3.1391,5.5 -12.8195,22.375 -21.5,37.5 -8.68051,15.125 -16.66801,29.075 -17.75001,31 -1.0819,1.925 -7.2656,12.725 -13.75,24 -36.02571,62.6411 -47.47855,82.6265 -53.28125,93 -3.538,6.325 -8.70445,15.325 -11.46875,20 -2.7644,4.675 -6.82415,11.65 -9.03125,15.5 -2.2071,3.85 -6.35085,11.05 -9.21875,16 -32.6889,56.4198 -57.88165,100.9058 -59.15625,104.4687 -1.6292,4.5546 -1.62825,11.5734 0.0312,16.2188 1.5334,4.2935 44.7221,80.1806 58.375,102.5938 3.8631,6.3417 5.1905,7.6643 10.3125,10.25 l 5.875,2.9687 62.90625,0 62.90631,0 5.375,-2.7813 c 7.0351,-3.6513 7.6941,-4.6597 43.875,-68.2187 8.8299,-15.5116 16.0235,-28.0859 20.5937,-36 4.8265,-8.3578 4.9063,-8.6422 4.9063,-17 0,-7.5544 -0.3363,-9.0563 -2.9063,-13.5 -1.5905,-2.75 -4.5625,-7.925 -6.5937,-11.5 -20.4866,-36.0561 -47.9258,-83.4963 -50.625,-87.5 -7.4512,-11.0521 -9.2305,-11.4799 -49.25006,-11.625 -34.72941,-0.126 -38.8129,-0.448 -38.375,-3.0625 0.1491,-0.8902 6.95595,-13.2518 15.09375,-27.4688 l 14.78125,-25.8437 34.43756,0 34.4375,0 6.75,3.2187 c 13.2441,6.2736 16.3619,10.2905 39.25,50.7813 5.9071,10.45 22.0011,38.7386 35.7812,62.875 13.7801,24.1363 25.8733,46.3697 26.875,49.4062 2.0677,6.2676 2.4415,18.3528 0.7813,26.0938 -0.9761,4.5517 -10.2633,22.0125 -26.9063,50.625 -5.7127,9.8213 -14.541,25.231 -38.3437,67 -6.582,11.55 -13.1069,23.25 -14.5,26 -3.312,6.538 -14.3241,17.5238 -20.9375,20.875 -11.3854,5.7694 -10.8559,5.7262 -101.09381,5.4063 -82.5233,-0.2926 -82.6809,-0.2804 -87.8125,-2.4688 -7.7847,-3.32 -15.64585,-8.7058 -19.96875,-13.6562 -2.1354,-2.4455 -11.49035,-17.8595 -20.78125,-34.2813 -9.2908,-16.4218 -18.12805,-31.9 -19.65625,-34.375 -1.5282,-2.475 -6.80455,-11.7 -11.71875,-20.5 -4.9143,-8.8 -14.3387,-25.45 -20.9375,-37 -6.5989,-11.55 -12.613,-22.8 -13.375,-25 -1.7877,-5.1614 -1.7919,-23.6111 0,-29 0.7312,-2.2 4.3601,-9.175 8.0625,-15.5 3.7024,-6.325 9.86775,-17.125 13.71875,-24 3.8511,-6.875 10.3843,-18.35 14.5,-25.5 6.5056,-11.3019 19.15205,-33.3479 55.59375,-97 4.7233,-8.25 17.09825,-29.85 27.53125,-48 10.4331,-18.15 22.18905,-38.6678 26.09375,-45.5938 5.825,-10.3318 26.29345,-46.0416 60.84375,-106.125 9.0349,-15.7118 10.99455,-19.9413 9.78125,-21.1562 l -57.1875,-0.75 c -1.7532,0.6665 -4.50305,4.3828 -9.03125,12.2812 -3.5752,6.236 -13.613,23.7188 -22.3125,38.8438 -8.6996,15.125 -18.72395,32.675 -22.28125,39 -3.5573,6.325 -10.72215,18.7 -15.90625,27.5 -5.1841,8.8 -9.9331,16.9 -10.5625,18 -0.6295,1.1 -6.0466,10.55 -12.0625,21 -6.0159,10.45 -12.87515,22.375 -15.21875,26.5 -2.3436,4.125 -8.39425,14.7 -13.46875,23.5 -5.0746,8.8 -13.1787,22.975 -18,31.5 -4.8212,8.525 -22.08145,38.7671 -38.34375,67.2187 -31.5422,55.1845 -34.3845,61.1856 -36.75,77.6875 -1.5982,11.1483 -0.6446,30.2679 2,40.5938 2.021,7.891 8.901,22.8257 15.75,34.1875 1.9309,3.2031 4.74715,8.0625 6.28125,10.8125 1.534,2.75 5.6158,9.95 9.0625,16 3.4467,6.05 7.6041,13.475 9.25,16.5 1.6458,3.025 4.0199,7.075 5.25,9 1.9868,3.109 10.19365,17.6136 25.78125,45.5 2.7669,4.95 6.92365,12.15 9.21875,16 2.2951,3.85 6.3724,10.825 9.0625,15.5 12.9531,22.5111 39.6754,40.5462 67.9375,45.8437 2.8369,0.5318 42.4216,0.9718 91.5,1.0313 68.90186,0.083 88.33106,-0.1518 95.50006,-1.25 16.4166,-2.5146 34.9415,-11.5695 49.5,-24.1563 8.2333,-7.1182 14.9746,-16.1712 24.125,-32.375 4.5306,-8.0228 11.9916,-21.0678 16.5625,-28.9687 4.5709,-7.9009 8.3125,-14.5275 8.3125,-14.75 0,-0.2225 1.1228,-2.1934 2.5,-4.375 1.3771,-2.1816 6.4798,-11.0488 11.3437,-19.7187 4.8639,-8.67 15.3168,-27.0313 23.2188,-40.7813 20.8893,-36.3489 23.9375,-45.1688 23.9375,-69.375 0,-20.9619 -3.6132,-33.9892 -14.6563,-53 -3.71,-6.3868 -11.4447,-19.95 -17.1875,-30.125 -22,-38.9795 -37.8084,-66.7603 -58.8125,-103.3438 -12.3217,-21.4612 -29.1055,-35.1316 -54.8437,-44.625 -8.7599,-3.231 -15.0312,-4.1305 -34,-4.875 -14.9417,-0.5864 -17.0239,-0.8655 -17.3125,-2.375 -0.1805,-0.9439 3.0129,-7.4689 7.0937,-14.5 19.9473,-34.3681 36.3505,-62.8627 42.1875,-73.2812 2.3111,-4.125 9.2847,-16.275 15.5,-27 25.9601,-44.7961 25.6451,-44.1441 22.4375,-45.375 l -56.0312,-0.031 0,-3e-4 z m -69.53126,325.5 c 15.57246,0 18.79476,0.3616 21.24996,1.4688 3.6272,1.6356 6.3921,5.1499 12.0625,15.4375 1.3642,2.475 8.6322,15.1605 16.1563,28.1875 15.4158,26.6902 15.717,27.675 10.8125,36.3125 -7.1373,12.5695 -11.2472,19.7229 -16.625,29 -3.1883,5.5 -8.018,13.9751 -10.75,18.8125 -2.732,4.8374 -6.458,10.3499 -8.25,12.25 l -3.25,3.4375 -38.87501,0 c -36.0863,0 -39.0907,-0.126 -41.875,-1.8438 -3.7375,-2.3058 -39.73455,-64.5949 -40.34375,-69.8125 -0.301,-2.5789 0.6959,-5.2005 4.375,-11.5937 2.6125,-4.5398 6.42575,-11.175 8.46875,-14.75 15.33,-26.8254 24.38385,-41.8204 26.53125,-43.9688 l 2.5,-2.5312 37.6875,-0.3125 c 8.3586,-0.068 14.93417,-0.093 20.125,-0.094 l 0,2e-4 z"
             id="rect2936"
             sodipodi:nodetypes="cssssssssssssscccccsssssssscccccssssssssssssssssssssssssccssssssssssssssssssssscssssssssssssssssssccccsssssscccssssccccc" />
          <g
             transform="translate(1304.4594,1762.7546)"
             id="g2906"
             style="fill:#344048;fill-opacity:1">
            <path
               sodipodi:nodetypes="ccsscccsssssssscccccssccccccssccsscccsssssssssssssscccssssssssccssssscccccssssssscccsssccccccssscccsssssssscccccsssccscccssssccsscccccscccccccssssssssssssscccsscccssssccscccccccccccccccccccccc"
               id="path2908"
               d="m -1781.1453,-467.93014 c -29.9282,-3.30598 -48.1511,-24.05696 -48.2044,-54.89186 -0.044,-25.66861 13.8749,-43.18732 39.8417,-50.1442 6.4698,-1.73337 11.4823,-2.11075 32.6435,-2.4577 13.75,-0.22544 26.2375,-0.39826 27.75,-0.38404 l 2.75,0.0258 0,-7.3185 c 0,-10.52207 -2.071,-16.57047 -7.3354,-21.42301 -6.2811,-5.78967 -9.96,-6.75849 -25.6646,-6.75849 -15.8649,0 -18.606,0.7567 -27.5365,7.60155 -3.515,2.69415 -6.8714,4.89845 -7.4586,4.89845 -1.5382,0 -27.0049,-25.04334 -27.0049,-26.55594 0,-2.42936 13.0742,-13.2424 20.2817,-16.77393 9.5054,-4.65755 17.2824,-6.54737 31.2265,-7.58808 49.2802,-3.67801 80.2317,12.84721 86.94,46.41795 1.3825,6.91807 1.5617,16.52022 1.3252,71 l -0.2734,63 -21.5,0 -21.5,0 -0.2977,-6.25 c -0.1641,-3.445 -0.7618,-6.25 -1.3317,-6.25 -0.5687,0 -2.9097,1.52074 -5.2023,3.37942 -11.3448,9.1977 -28.3627,12.80183 -49.4491,10.47254 l 0,4e-5 z m 39.5803,-38.86107 c 11.2357,-4.83344 15.6711,-13.53943 15.0247,-29.49089 l -0.3242,-8 -21,0 c -23.5767,0 -27.5796,0.81579 -33.1817,6.76237 -8.6425,9.17394 -6.1531,24.59124 4.8992,30.34152 7.7669,4.04098 25.6236,4.24081 34.582,0.387 z m 145.2005,39.34358 c -15.6309,-1.54277 -32.4032,-5.98802 -43.2742,-11.46913 -11.3863,-5.74095 -26.7258,-17.36662 -26.7258,-20.2552 0,-0.62433 6.7107,-7.83469 14.9127,-16.02301 l 14.9127,-14.88787 6.3373,4.79919 c 7.5224,5.69665 16.3355,9.89437 26.7439,12.73815 6.2375,1.70422 10.6289,2.08548 24.5934,2.13518 15.2847,0.0544 17.6558,-0.17171 23.5,-2.24104 15.5053,-5.49021 21.7008,-14.46434 20.7944,-30.12091 -0.5609,-9.68959 -3.7651,-15.76696 -10.5975,-20.09992 -6.1732,-3.9149 -8.2592,-4.42277 -32.6969,-7.96046 -36.0797,-5.22302 -49.8981,-10.29291 -62.5,-22.93085 -7.6479,-7.66979 -12.0951,-15.89282 -15.1224,-27.96218 -1.8292,-7.29277 -2.0463,-10.35937 -1.593,-22.5 0.7154,-19.15792 3.8664,-28.5774 14.1251,-42.22451 4.7191,-6.27775 15.932,-15.55452 23.0903,-19.10333 18.6072,-9.22472 43.1673,-12.32505 69.5,-8.77329 17.555,2.36783 31.2886,7.47672 44.3254,16.48907 9.602,6.63783 12.2744,9.48048 11.0843,11.79012 -0.5003,0.97104 -7.062,7.78415 -14.5814,15.14025 l -13.6716,13.37473 -7.6139,-5.09244 c -10.9117,-7.2982 -20.691,-10.2052 -36.6361,-10.89048 -14.12,-0.60684 -20.5083,0.42633 -28.2621,4.57081 -15.9712,8.53674 -20.6455,28.92759 -9.5268,41.55914 5.4121,6.14844 13.3461,9.38477 28.7224,11.71599 30.3994,4.60888 38.6821,6.14037 45.9432,8.49499 20.7109,6.71607 35.0619,21.48025 40.7202,41.89253 2.4812,8.95091 3.087,31.07673 1.1088,40.5 -5.0035,23.83425 -23.6077,43.09714 -50.1124,51.88663 -15.1378,5.01999 -38.9637,7.27738 -57.5,5.44784 z m 192.814,-0.34385 c -28.9943,-4.60313 -48.6786,-19.08541 -58.3748,-42.94795 -10.9016,-26.82905 -10.8699,-67.0238 0.074,-93.89725 5.7438,-14.10426 18.3515,-28.91757 30.55,-35.89454 8.1624,-4.66853 20.2216,-8.2541 30.4367,-9.04982 43.2654,-3.37019 73.1792,17.38386 84.029,58.29894 1.9093,7.19987 4.1026,37.46937 3.0971,42.74155 l -0.7135,3.74156 -55.2063,0.25844 -55.2063,0.25845 0.082,6.0012 c 0.175,12.76543 9.6557,25.81477 22.1711,30.51648 11.0112,4.13666 27.3073,3.59296 38.6575,-1.28977 2.7308,-1.17475 7.6731,-4.30927 10.9829,-6.96559 3.3099,-2.65633 6.586,-4.70202 7.2803,-4.546 2.5155,0.56525 26.1991,24.95051 25.6422,26.40179 -1.0591,2.75999 -16.9085,14.53942 -24.8163,18.44374 -12.0837,5.9661 -21.4356,8.02087 -38.5,8.4591 -7.975,0.20481 -17.0587,-0.0338 -20.186,-0.53033 l 4e-4,0 z m 44.8174,-113.46997 c -1.5266,-12.98857 -8.1858,-23.19033 -18.417,-28.2145 -4.9801,-2.44557 -6.8709,-2.8055 -14.7144,-2.8011 -7.2553,0.004 -9.9693,0.44952 -14,2.29785 -10.4371,4.78602 -17.8467,15.65289 -19.1454,28.07875 l -0.6395,6.11835 33.7801,0 33.7802,0 -0.644,-5.47935 z m 380.04724,113.42976 c -30.84764,-3.61307 -48.74034,-23.76973 -48.77844,-54.95041 -0.02,-16.47529 4.405,-27.38813 15.1468,-37.35382 6.5227,-6.05148 14.09234,-9.96656 24.74614,-12.79907 6.4829,-1.72357 12.07452,-2.15209 35.2069,-2.69806 l 27.5,-0.64905 -0.083,-9 c -0.096,-10.34772 -1.9386,-15.11701 -7.8447,-20.3026 -5.1767,-4.54528 -10.2468,-5.6974 -25.072,-5.6974 -15.25413,0 -19.7057,1.28742 -28.1038,8.12774 -2.9527,2.40474 -5.9436,4.37226 -6.6468,4.37226 -1.9008,0 -26.74974,-25.25617 -26.74974,-27.18817 0,-2.15027 11.6629,-11.82051 18.9236,-15.69044 12.50924,-6.66735 32.67182,-9.60226 55.18614,-8.03303 30.5509,2.12939 50.2318,12.78891 59.4497,32.19904 6.2515,13.16408 6.4906,16.48858 6.1995,86.2126 l -0.2589,62 -21.5,0 -21.5,0 -0.2977,-6.25 c -0.1638,-3.4375 -0.7224,-6.25 -1.2414,-6.25 -0.519,0 -3.0403,1.60044 -5.6029,3.55654 -6.1472,4.69222 -11.06,7.13079 -18.0162,8.94266 -7.03933,1.8335 -21.53992,2.51978 -30.6632,1.45121 z m 36.5461,-37.911 c 5.8145,-1.74755 11.9963,-6.99692 14.7753,-12.54677 2.1909,-4.37544 2.5,-6.29068 2.5,-15.49264 l 0,-10.5 -21.5,0 c -21.38982,0 -21.52819,0.0139 -27,2.72307 -7.1868,3.5582 -10.2464,8.03466 -10.8091,15.81472 -0.4912,6.79067 2.306,13.93122 6.5455,16.70904 6.00432,3.93421 12.40649,5.3329 22.2636,4.86398 5.225,-0.24857 11.1761,-0.9557 13.2247,-1.5714 z m -935.22474,36.31275 c -20.5358,-3.27954 -34.984,-15.68104 -40.6912,-34.92702 -1.6147,-5.44494 -1.7828,-13.98909 -2.0741,-105.42514 -0.1744,-54.725 -0.063,-100.52125 0.248,-101.76944 l 0.5652,-2.26943 21.726,0.26943 21.7261,0.26944 0.5,98 c 0.466,91.32988 0.6205,98.22056 2.2708,101.24058 3.1219,5.71309 5.8021,6.71912 18.9562,7.11539 l 11.8163,0.35596 -0.2716,18.64404 -0.2717,18.64403 -16,0.1257 c -8.8,0.0691 -17.125,-0.0539 -18.5,-0.27354 z m 562.1767,-0.8495 c 0.1778,-0.82354 13.7483,-21.32628 30.1566,-45.56165 16.4084,-24.23536 29.6152,-44.63289 29.3485,-45.32783 -0.2667,-0.69495 -12.9924,-19.674 -28.2794,-42.17569 -15.287,-22.50168 -27.8189,-41.81785 -27.8485,-42.92482 -0.052,-1.95682 0.6292,-2.02008 24.5641,-2.27985 22.3172,-0.24221 24.8134,-0.10202 26.7089,1.5 1.1499,0.97195 8.2003,12.11718 15.6675,24.76718 7.4672,12.65 14.1055,23 14.7518,23 0.6463,0 7.6166,-10.79811 15.4897,-23.9958 7.8731,-13.19768 15.0908,-24.30355 16.0394,-24.67971 0.9486,-0.37616 12.6513,-0.71555 26.0061,-0.7542 20.3309,-0.0589 24.3719,0.16554 24.8376,1.37924 0.3321,0.86547 -10.2574,17.3623 -26.2814,40.94224 -14.7607,21.72099 -27.726,41.06539 -28.8118,42.98756 l -1.9742,3.49485 6.9742,10.31287 c 3.8358,5.67208 17.4577,25.79436 30.2709,44.71619 13.0859,19.3245 22.9181,34.78199 22.4328,35.26729 -0.4752,0.47519 -12.4664,0.74371 -26.6472,0.59672 l -25.7832,-0.26725 -15.6758,-25.42542 c -8.6217,-13.98399 -16.1526,-25.58435 -16.7353,-25.77858 -0.5827,-0.19424 -7.9604,11.0222 -16.3948,24.92542 -8.4343,13.90322 -15.8208,25.60919 -16.4142,26.01327 -0.5935,0.40408 -12.6995,0.74158 -26.9023,0.75 -22.4163,0.0133 -25.7807,-0.18225 -25.5,-1.48203 z m 233.0319,-0.0155 c -17.4833,-3.83059 -30.7122,-15.84434 -36.3237,-32.98716 -0.9779,-2.98762 -1.4454,-16.9078 -1.8471,-55 l -0.5378,-51 -13.0714,-0.0851 c 0,0 -0.1786,-39.65113 -0.1786,-39.65113 l 13.25,-0.26372 0.3583,-46.53816 44.6417,0.18102 0.5369,46.85714 30.9142,0.14806 c 0,0 -0.052,38.83829 -0.052,38.83829 l -30.9559,0.0136 0.2782,47.43507 0.2783,47.43507 2.9431,3.07126 c 3.7625,3.92622 7.9355,5.0461 18.829,5.05302 l 8.772,0.006 -0.039,37.5 -16.0051,0.18281 c -10.1171,0.11932 -17.6849,-0.2959 -21.7914,-1.19564 l 0,-3.8e-4 0,-5e-5 3e-4,0 z"
               style="fill:#344048;fill-opacity:1" />
          </g>
        </g>
      </g>
    </g>
  </g>
</svg>
